<?xml version="1.0" encoding="UTF-8"?>
<svg width="64" height="64" viewBox="0 0 64 64" xmlns="http://www.w3.org/2000/svg">
  <circle cx="32" cy="32" r="32" fill="#f7931a"/>
  <path fill="#fff" d="M42.5 26.5c.5-3.5-2-5.5-5.5-6.5l1-4.5-2.5-.5-1 4c-.5-.5-1.5-.5-2-.5l1-4-2.5-.5-1 4.5c-.5 0-1 0-1.5-.5v0l-3.5-.5-.5 2.5s2 .5 2 .5c1 0 1.5.5 1.5 1.5l-1.5 6v0l-2 8c0 .5-.5 1-1.5 1 0 0-2-.5-2-.5l-1 2.5 3.5.5c.5 0 1 0 1.5.5l-1 4.5 2.5.5 1-4c.5 0 1.5.5 2 .5l-1 4 2.5.5 1-4.5c4.5.5 8-1 9-4.5.5-2.5 0-4-1.5-5 1-.5 2-1.5 2.5-3.5zm-4.5 6.5c-.5 2.5-4 3.5-7.5 2.5l1.5-5.5c3.5 1 8 1.5 6 3zm.5-6.5c-.5 2-3.5 2.5-6.5 2l1-4.5c3 .5 6.5 1 5.5 2.5z"/>
</svg>