<?xml version="1.0" encoding="UTF-8"?>
<svg width="64" height="64" viewBox="0 0 64 64" xmlns="http://www.w3.org/2000/svg">
  <defs>
    <linearGradient id="defiGrad" x1="0%" y1="0%" x2="100%" y2="100%">
      <stop offset="0%" style="stop-color:#7C3AED;stop-opacity:1" />
      <stop offset="100%" style="stop-color:#A855F7;stop-opacity:1" />
    </linearGradient>
  </defs>
  
  <!-- Central DeFi hub -->
  <circle cx="32" cy="32" r="12" fill="url(#defiGrad)" stroke="#fff" stroke-width="2"/>
  
  <!-- DeFi text -->
  <text x="32" y="36" text-anchor="middle" font-family="Arial, sans-serif" font-size="8" font-weight="bold" fill="#fff">DeFi</text>
  
  <!-- Financial services nodes -->
  <circle cx="16" cy="12" r="6" fill="#10B981" stroke="#fff" stroke-width="2"/>
  <text x="16" y="15" text-anchor="middle" font-family="Arial, sans-serif" font-size="6" fill="#fff">$</text>
  
  <circle cx="48" cy="12" r="6" fill="#F59E0B" stroke="#fff" stroke-width="2"/>
  <text x="48" y="15" text-anchor="middle" font-family="Arial, sans-serif" font-size="6" fill="#fff">⟷</text>
  
  <circle cx="8" cy="32" r="6" fill="#EF4444" stroke="#fff" stroke-width="2"/>
  <text x="8" y="35" text-anchor="middle" font-family="Arial, sans-serif" font-size="6" fill="#fff">%</text>
  
  <circle cx="56" cy="32" r="6" fill="#06B6D4" stroke="#fff" stroke-width="2"/>
  <text x="56" y="35" text-anchor="middle" font-family="Arial, sans-serif" font-size="6" fill="#fff">⚡</text>
  
  <circle cx="16" cy="52" r="6" fill="#8B5CF6" stroke="#fff" stroke-width="2"/>
  <text x="16" y="55" text-anchor="middle" font-family="Arial, sans-serif" font-size="6" fill="#fff">📊</text>
  
  <circle cx="48" cy="52" r="6" fill="#F97316" stroke="#fff" stroke-width="2"/>
  <text x="48" y="55" text-anchor="middle" font-family="Arial, sans-serif" font-size="6" fill="#fff">🔐</text>
  
  <!-- Connection lines -->
  <line x1="20" y1="18" x2="26" y2="26" stroke="#6B7280" stroke-width="1" stroke-dasharray="2,2"/>
  <line x1="42" y1="18" x2="38" y2="26" stroke="#6B7280" stroke-width="1" stroke-dasharray="2,2"/>
  <line x1="14" y1="32" x2="20" y2="32" stroke="#6B7280" stroke-width="1" stroke-dasharray="2,2"/>
  <line x1="44" y1="32" x2="50" y2="32" stroke="#6B7280" stroke-width="1" stroke-dasharray="2,2"/>
  <line x1="22" y1="46" x2="26" y2="38" stroke="#6B7280" stroke-width="1" stroke-dasharray="2,2"/>
  <line x1="42" y1="46" x2="38" y2="38" stroke="#6B7280" stroke-width="1" stroke-dasharray="2,2"/>
</svg>