<?xml version="1.0" encoding="UTF-8"?>
<svg width="743px" height="113px" viewBox="0 0 743 113" version="1.1" xmlns="http://www.w3.org/2000/svg" xmlns:xlink="http://www.w3.org/1999/xlink">
    <title>FireBlocks Navy</title>
    <g id="FireBlocks-Navy" stroke="none" stroke-width="1" fill="none" fill-rule="evenodd">
        <g id="Brand/Logomark" fill="#002E7F">
            <g id="Brand/Wordmark" transform="translate(163.222222, 12.555556)">
                <path d="M13.5555556,0 L13.5555556,19.5555556 L0,19.5555556 L0,29.3333333 L13.5555556,29.3333333 L13.5555556,42.8888889 L3.77777778,42.8888889 L3.77777778,52.6666667 L13.5555556,52.6666667 L13.5555556,87.5555556 L23.3333333,87.5555556 L23.3333333,0 L13.5555556,0 Z M41.5555556,0 L41.5555556,9.77777778 L50.0833333,9.77777778 L50.0833333,0 L41.5555556,0 Z M41.5555556,19.5555556 L41.5555556,87.5555556 L51.3333333,87.5555556 L51.3333333,19.5555556 L41.5555556,19.5555556 Z M73.2222222,19.0277778 C69.5,19.0277778 66.7777778,20.0833333 65.0555556,22.1944444 L65.0555556,19.5555556 L55.2777778,19.5555556 L55.2777778,87.5555556 L65.0555556,87.5555556 L65.0555556,50.5277778 C66.7777778,48.4166667 69.5,47.3611111 73.2222222,47.3611111 C79.7222222,47.3611111 83.4444444,50.5277778 83.4444444,57.0277778 L83.4444444,87.5555556 L93.2222222,87.5555556 L93.2222222,54.9722222 C93.2222222,43.9444444 87.7777778,37.4444444 76.75,37.4444444 C73.2222222,37.4444444 69.5,38.5 66.7777778,40.6111111 L66.7777778,19.5555556 L57,19.5555556 L57,87.5555556 L66.7777778,87.5555556 L66.7777778,87.5555556 Z M114,19.0277778 C101.916667,19.0277778 93.75,26.6666667 93.75,50.5277778 L93.75,56.5 C93.75,80.3611111 101.916667,88 114,88 C126.083333,88 134.25,80.3611111 134.25,56.5 L134.25,50.5277778 C134.25,26.6666667 126.083333,19.0277778 114,19.0277778 Z M114,28.2777778 C119.444444,28.2777778 124.472222,31.4444444 124.472222,50.5277778 L124.472222,56.5 C124.472222,75.5833333 119.444444,78.75 114,78.75 C108.555556,78.75 103.527778,75.5833333 103.527778,56.5 L103.527778,50.5277778 C103.527778,31.4444444 108.555556,28.2777778 114,28.2777778 Z M151.333333,19.5555556 L151.333333,87.5555556 L161.111111,87.5555556 L161.111111,19.5555556 L151.333333,19.5555556 Z M166.888889,19.5555556 L166.888889,87.5555556 L176.666667,87.5555556 L176.666667,29.3333333 L186.444444,29.3333333 L186.444444,19.5555556 L166.888889,19.5555556 Z M238.222222,17.9722222 C226.138889,17.9722222 218.5,25.6111111 218.5,49.4722222 L218.5,55.4444444 C218.5,79.3055556 226.138889,86.9444444 238.222222,86.9444444 C250.305556,86.9444444 257.944444,79.3055556 257.944444,55.4444444 L257.944444,49.4722222 C257.944444,25.6111111 250.305556,17.9722222 238.222222,17.9722222 Z M238.222222,27.2222222 C243.666667,27.2222222 248.166667,30.3888889 248.166667,49.4722222 L248.166667,55.4444444 C248.166667,74.5277778 243.666667,77.6944444 238.222222,77.6944444 C232.777778,77.6944444 228.277778,74.5277778 228.277778,55.4444444 L228.277778,49.4722222 C228.277778,30.3888889 232.777778,27.2222222 238.222222,27.2222222 Z M270.444444,19.5555556 L270.444444,87.5555556 L280.222222,87.5555556 L280.222222,30.9166667 C282.333333,27.2222222 285.5,26.1666667 289.222222,26.1666667 C295.722222,26.1666667 299.444444,29.3333333 299.444444,35.8333333 L299.444444,87.5555556 L309.222222,87.5555556 L309.222222,33.7777778 C309.222222,22.75 303.777778,16.25 292.75,16.25 C289.222222,16.25 285.5,17.3055556 280.222222,19.9444444 L280.222222,0 L270.444444,0 L270.444444,19.5555556 Z M323.888889,19.5555556 L323.888889,31.9722222 L337.888889,31.9722222 L337.888889,76.1111111 C337.888889,82.0833333 341.611111,85.25 347.055556,85.25 C351.027778,85.25 354.222222,84.1944444 356.333333,82.6111111 L353.666667,74.5277778 C352.611111,75.0555556 351.555556,75.0555556 350.5,75.0555556 C348.388889,75.0555556 347.666667,74.0 347.666667,71.8888889 L347.666667,31.9722222 L356.333333,31.9722222 L356.333333,22.1944444 L347.666667,22.1944444 L347.666667,8.19444444 L337.888889,10.8333333 L337.888889,22.1944444 L323.888889,22.1944444 L323.888889,19.5555556 Z M370.5,19.5555556 L370.5,87.5555556 L380.277778,87.5555556 L380.277778,30.9166667 C382.388889,27.2222222 385.555556,26.1666667 389.277778,26.1666667 C395.777778,26.1666667 399.5,29.3333333 399.5,35.8333333 L399.5,87.5555556 L409.277778,87.5555556 L409.277778,33.7777778 C409.277778,22.75 403.833333,16.25 392.805556,16.25 C389.277778,16.25 385.555556,17.3055556 380.277778,19.9444444 L380.277778,0 L370.5,0 L370.5,19.5555556 Z M423.944444,19.5555556 L423.944444,87.5555556 L433.722222,87.5555556 L433.722222,30.9166667 C435.833333,27.2222222 439,26.1666667 442.722222,26.1666667 C449.222222,26.1666667 452.944444,29.3333333 452.944444,35.8333333 L452.944444,87.5555556 L462.722222,87.5555556 L462.722222,33.7777778 C462.722222,22.75 457.277778,16.25 446.25,16.25 C442.722222,16.25 439,17.3055556 433.722222,19.9444444 L433.722222,0 L423.944444,0 L423.944444,19.5555556 Z M499.777778,15.7222222 C495.277778,15.7222222 491.027778,17.3055556 487.5,20.4722222 L487.5,19.5555556 L477.722222,19.5555556 L477.722222,87.5555556 L487.5,87.5555556 L487.5,30.9166667 C489.611111,27.2222222 492.777778,26.1666667 496.5,26.1666667 C503,26.1666667 506.722222,29.3333333 506.722222,35.8333333 L506.722222,87.5555556 L516.5,87.5555556 L516.5,33.7777778 C516.5,22.75 511.055556,16.25 500.027778,16.25 C499.777778,16.25 499.777778,15.7222222 499.777778,15.7222222 Z M535.5,19.5555556 L535.5,87.5555556 L545.277778,87.5555556 L545.277778,29.3333333 L555.055556,29.3333333 L555.055556,19.5555556 L535.5,19.5555556 Z M568.777778,19.5555556 L568.777778,87.5555556 L578.555556,87.5555556 L578.555556,19.5555556 L568.777778,19.5555556 Z M568.777778,0 L568.777778,9.77777778 L578.555556,9.77777778 L578.555556,0 L568.777778,0 Z</path>
            </g>
            <g id="Brand/Brandmark/Navy">
                <path d="M112,0 C112.552285,1.45285917e-15 113,0.44771525 113,1 L113,1 L113,112 C113,112.552285 112.552285,113 112,113 L112,113 L1,113 C0.44771525,113 6.76353751e-17,112.552285 0,112 L0,112 L0,1 C1.48667686e-15,0.44771525 0.44771525,1.01453063e-16 1,0 L1,0 Z M56.4997489,31.3888889 L25.11086,81.6111111 L87.8886378,81.6111111 L56.4997489,31.3888889 Z" id="Brand/Brandmark"></path>
            </g>
        </g>
    </g>
</svg>