<?xml version="1.0" encoding="UTF-8"?>
<svg width="64" height="64" viewBox="0 0 64 64" xmlns="http://www.w3.org/2000/svg">
  <defs>
    <linearGradient id="blockchainGrad" x1="0%" y1="0%" x2="100%" y2="100%">
      <stop offset="0%" style="stop-color:#4F46E5;stop-opacity:1" />
      <stop offset="100%" style="stop-color:#7C3AED;stop-opacity:1" />
    </linearGradient>
  </defs>
  <!-- Block 1 -->
  <rect x="4" y="20" width="16" height="12" rx="2" fill="url(#blockchainGrad)" stroke="#fff" stroke-width="1"/>
  <circle cx="12" cy="26" r="2" fill="#fff"/>
  
  <!-- Block 2 -->
  <rect x="24" y="12" width="16" height="12" rx="2" fill="url(#blockchainGrad)" stroke="#fff" stroke-width="1"/>
  <circle cx="32" cy="18" r="2" fill="#fff"/>
  
  <!-- Block 3 -->
  <rect x="44" y="20" width="16" height="12" rx="2" fill="url(#blockchainGrad)" stroke="#fff" stroke-width="1"/>
  <circle cx="52" cy="26" r="2" fill="#fff"/>
  
  <!-- Block 4 -->
  <rect x="14" y="40" width="16" height="12" rx="2" fill="url(#blockchainGrad)" stroke="#fff" stroke-width="1"/>
  <circle cx="22" cy="46" r="2" fill="#fff"/>
  
  <!-- Block 5 -->
  <rect x="34" y="40" width="16" height="12" rx="2" fill="url(#blockchainGrad)" stroke="#fff" stroke-width="1"/>
  <circle cx="42" cy="46" r="2" fill="#fff"/>
  
  <!-- Connection lines -->
  <line x1="20" y1="26" x2="24" y2="18" stroke="#6B7280" stroke-width="2"/>
  <line x1="40" y1="18" x2="44" y2="26" stroke="#6B7280" stroke-width="2"/>
  <line x1="20" y1="32" x2="22" y2="40" stroke="#6B7280" stroke-width="2"/>
  <line x1="52" y1="32" x2="42" y2="40" stroke="#6B7280" stroke-width="2"/>
  <line x1="30" y1="46" x2="34" y2="46" stroke="#6B7280" stroke-width="2"/>
</svg>